<mxfile host="app.diagrams.net" modified="2021-09-07T04:33:36.433Z" agent="5.0 (Macintosh; Intel Mac OS X 10_15_7) AppleWebKit/537.36 (KHTML, like Gecko) Chrome/92.0.4515.159 Safari/537.36" etag="708OO1LkmAkpF39xhAVX" version="15.0.6" type="github">
  <diagram id="4JtZZnZ8_Ed12hvy2thT" name="ページ1">
    <mxGraphModel dx="996" dy="976" grid="1" gridSize="10" guides="1" tooltips="1" connect="1" arrows="1" fold="1" page="1" pageScale="1" pageWidth="1169" pageHeight="827" math="0" shadow="0">
      <root>
        <mxCell id="0" />
        <mxCell id="1" parent="0" />
        <mxCell id="JZ96BJKMGMlSmCd91mhv-27" value="" style="rounded=1;arcSize=10;dashed=0;gradientColor=none;strokeWidth=2;fontSize=16;" vertex="1" parent="1">
          <mxGeometry x="30" y="30" width="820" height="1020" as="geometry" />
        </mxCell>
        <mxCell id="JZ96BJKMGMlSmCd91mhv-1" value="" style="outlineConnect=0;fontColor=#232F3E;gradientColor=none;fillColor=#527FFF;strokeColor=none;dashed=0;verticalLabelPosition=bottom;verticalAlign=top;align=center;html=1;fontSize=12;fontStyle=0;aspect=fixed;pointerEvents=1;shape=mxgraph.aws4.rds_instance;" vertex="1" parent="1">
          <mxGeometry x="250" y="770" width="100" height="100" as="geometry" />
        </mxCell>
        <mxCell id="JZ96BJKMGMlSmCd91mhv-2" value="Amazon EC2" style="outlineConnect=0;fontColor=#232F3E;gradientColor=none;strokeColor=#ffffff;fillColor=#FF8000;dashed=0;verticalLabelPosition=middle;verticalAlign=bottom;align=center;html=1;whiteSpace=wrap;fontSize=10;fontStyle=1;spacing=3;shape=mxgraph.aws4.productIcon;prIcon=mxgraph.aws4.ec2;" vertex="1" parent="1">
          <mxGeometry x="250" y="530" width="100" height="100" as="geometry" />
        </mxCell>
        <mxCell id="JZ96BJKMGMlSmCd91mhv-3" value="VPC" style="points=[[0,0],[0.25,0],[0.5,0],[0.75,0],[1,0],[1,0.25],[1,0.5],[1,0.75],[1,1],[0.75,1],[0.5,1],[0.25,1],[0,1],[0,0.75],[0,0.5],[0,0.25]];outlineConnect=0;gradientColor=none;html=1;whiteSpace=wrap;fontSize=12;fontStyle=0;shape=mxgraph.aws4.group;grIcon=mxgraph.aws4.group_vpc;strokeColor=#248814;fillColor=none;verticalAlign=top;align=left;spacingLeft=30;fontColor=#AAB7B8;dashed=0;" vertex="1" parent="1">
          <mxGeometry x="120" y="320" width="630" height="640" as="geometry" />
        </mxCell>
        <mxCell id="JZ96BJKMGMlSmCd91mhv-4" value="" style="rounded=1;arcSize=10;dashed=0;fillColor=none;gradientColor=none;strokeWidth=2;" vertex="1" parent="1">
          <mxGeometry x="200" y="480" width="200" height="200" as="geometry" />
        </mxCell>
        <mxCell id="JZ96BJKMGMlSmCd91mhv-5" value="" style="dashed=0;html=1;shape=mxgraph.aws3.permissions;fillColor=#D9A741;gradientColor=none;dashed=0;" vertex="1" parent="1">
          <mxGeometry x="200" y="480" width="30" height="35" as="geometry" />
        </mxCell>
        <mxCell id="JZ96BJKMGMlSmCd91mhv-6" value="" style="rounded=1;arcSize=10;dashed=0;fillColor=none;gradientColor=none;strokeWidth=2;" vertex="1" parent="1">
          <mxGeometry x="200" y="720" width="200" height="200" as="geometry" />
        </mxCell>
        <mxCell id="JZ96BJKMGMlSmCd91mhv-7" value="" style="dashed=0;html=1;shape=mxgraph.aws3.permissions;fillColor=#D9A741;gradientColor=none;dashed=0;" vertex="1" parent="1">
          <mxGeometry x="200" y="720" width="30" height="35" as="geometry" />
        </mxCell>
        <mxCell id="JZ96BJKMGMlSmCd91mhv-8" value="Public subnet" style="text;html=1;resizable=0;autosize=1;align=center;verticalAlign=middle;points=[];fillColor=none;strokeColor=none;rounded=0;fontSize=16;" vertex="1" parent="1">
          <mxGeometry x="240" y="650" width="110" height="20" as="geometry" />
        </mxCell>
        <mxCell id="JZ96BJKMGMlSmCd91mhv-10" value="Public subnet" style="text;html=1;resizable=0;autosize=1;align=center;verticalAlign=middle;points=[];fillColor=none;strokeColor=none;rounded=0;fontSize=16;" vertex="1" parent="1">
          <mxGeometry x="240" y="650" width="110" height="20" as="geometry" />
        </mxCell>
        <mxCell id="JZ96BJKMGMlSmCd91mhv-11" value="Private subnet" style="text;html=1;resizable=0;autosize=1;align=center;verticalAlign=middle;points=[];fillColor=none;strokeColor=none;rounded=0;fontSize=16;" vertex="1" parent="1">
          <mxGeometry x="235" y="890" width="120" height="20" as="geometry" />
        </mxCell>
        <mxCell id="JZ96BJKMGMlSmCd91mhv-13" value="" style="rounded=1;arcSize=10;dashed=0;fillColor=none;gradientColor=none;strokeWidth=2;" vertex="1" parent="1">
          <mxGeometry x="485" y="480" width="200" height="200" as="geometry" />
        </mxCell>
        <mxCell id="JZ96BJKMGMlSmCd91mhv-14" value="" style="dashed=0;html=1;shape=mxgraph.aws3.permissions;fillColor=#D9A741;gradientColor=none;dashed=0;" vertex="1" parent="1">
          <mxGeometry x="485" y="480" width="30" height="35" as="geometry" />
        </mxCell>
        <mxCell id="JZ96BJKMGMlSmCd91mhv-15" value="Private subnet" style="text;html=1;resizable=0;autosize=1;align=center;verticalAlign=middle;points=[];fillColor=none;strokeColor=none;rounded=0;fontSize=16;" vertex="1" parent="1">
          <mxGeometry x="525" y="650" width="120" height="20" as="geometry" />
        </mxCell>
        <mxCell id="JZ96BJKMGMlSmCd91mhv-16" value="" style="rounded=1;arcSize=10;dashed=1;fillColor=none;gradientColor=none;dashPattern=1 1;strokeWidth=2;fontSize=16;" vertex="1" parent="1">
          <mxGeometry x="180" y="440" width="240" height="500" as="geometry" />
        </mxCell>
        <mxCell id="JZ96BJKMGMlSmCd91mhv-17" value="" style="rounded=1;arcSize=10;dashed=1;fillColor=none;gradientColor=none;dashPattern=1 1;strokeWidth=2;fontSize=16;" vertex="1" parent="1">
          <mxGeometry x="465" y="440" width="240" height="500" as="geometry" />
        </mxCell>
        <mxCell id="JZ96BJKMGMlSmCd91mhv-18" value="" style="outlineConnect=0;fontColor=#232F3E;gradientColor=none;fillColor=#A166FF;strokeColor=none;dashed=0;verticalLabelPosition=bottom;verticalAlign=top;align=center;html=1;fontSize=12;fontStyle=0;aspect=fixed;pointerEvents=1;shape=mxgraph.aws4.customer_gateway;" vertex="1" parent="1">
          <mxGeometry x="400" y="320" width="80" height="80" as="geometry" />
        </mxCell>
        <mxCell id="JZ96BJKMGMlSmCd91mhv-19" value="Internet&lt;br style=&quot;font-size: 20px;&quot;&gt;gateway" style="outlineConnect=0;dashed=0;verticalLabelPosition=bottom;verticalAlign=top;align=center;fontSize=20;fontStyle=0;aspect=fixed;shape=mxgraph.aws4.resourceIcon;resIcon=mxgraph.aws4.internet_gateway;labelBorderColor=none;html=1;gradientColor=#999999;gradientDirection=radial;strokeColor=none;" vertex="1" parent="1">
          <mxGeometry x="390" y="60" width="100" height="100" as="geometry" />
        </mxCell>
        <mxCell id="JZ96BJKMGMlSmCd91mhv-28" value="" style="dashed=0;html=1;shape=mxgraph.aws3.cloud;fillColor=#F58536;gradientColor=none;dashed=0;fontSize=16;" vertex="1" parent="1">
          <mxGeometry x="70" y="50" width="100" height="60" as="geometry" />
        </mxCell>
        <mxCell id="JZ96BJKMGMlSmCd91mhv-32" value="" style="endArrow=none;html=1;fontSize=16;" edge="1" parent="1">
          <mxGeometry width="50" height="50" relative="1" as="geometry">
            <mxPoint x="439.29" y="320" as="sourcePoint" />
            <mxPoint x="439" y="220" as="targetPoint" />
            <Array as="points">
              <mxPoint x="439" y="220" />
            </Array>
          </mxGeometry>
        </mxCell>
        <mxCell id="JZ96BJKMGMlSmCd91mhv-33" value="" style="endArrow=none;html=1;fontSize=16;" edge="1" parent="1">
          <mxGeometry width="50" height="50" relative="1" as="geometry">
            <mxPoint x="300" y="400" as="sourcePoint" />
            <mxPoint x="400" y="360" as="targetPoint" />
            <Array as="points">
              <mxPoint x="300" y="540" />
              <mxPoint x="300" y="360" />
            </Array>
          </mxGeometry>
        </mxCell>
        <mxCell id="JZ96BJKMGMlSmCd91mhv-34" value="" style="endArrow=none;html=1;fontSize=16;" edge="1" parent="1">
          <mxGeometry width="50" height="50" relative="1" as="geometry">
            <mxPoint x="300" y="770" as="sourcePoint" />
            <mxPoint x="300" y="630" as="targetPoint" />
            <Array as="points">
              <mxPoint x="300" y="770" />
            </Array>
          </mxGeometry>
        </mxCell>
        <mxCell id="JZ96BJKMGMlSmCd91mhv-35" value="Aveliability Zone #1" style="text;html=1;resizable=0;autosize=1;align=center;verticalAlign=middle;points=[];fillColor=none;strokeColor=none;rounded=0;fontSize=16;" vertex="1" parent="1">
          <mxGeometry x="230" y="450" width="150" height="20" as="geometry" />
        </mxCell>
        <mxCell id="JZ96BJKMGMlSmCd91mhv-36" value="Aveliability Zone #2" style="text;html=1;resizable=0;autosize=1;align=center;verticalAlign=middle;points=[];fillColor=none;strokeColor=none;rounded=0;fontSize=16;" vertex="1" parent="1">
          <mxGeometry x="510" y="450" width="150" height="20" as="geometry" />
        </mxCell>
      </root>
    </mxGraphModel>
  </diagram>
</mxfile>
